# xmcd CD database file
#
# Track frame offsets:
#	150
#	13429
#	28360
#	43554
#	56851
#	69339
#	82500
#	96631
#	108181
#	120280
#	132815
#	145358
#	158166
#	171596
#	183428
#	197967
#	210717
#	224395
#	236540
#	254178
#	266331
#
# Disc length: 3746 seconds
#
# Revision: 0
# Processed by: cddbd v1.4PL0 Copyright (c) Steve Scherf et al.
# Submitted via: CDex 1.50Beta7
#
DISCID=3e0ea015
DTITLE=Stan Getz - There's A Small Hotel
DYEAR=2000
DGENRE=Jazz
TTITLE0=There's A Small Hotel
TTITLE1=I've Got You Under My Skin
TTITLE2=What's New
TTITLE3=Too Marvelous For Words
TTITLE4=My Old Flame
TTITLE5=You Stepped Out Of A Dream 
TTITLE6=Wrap Your Troubles In Dream
TTITLE7=Opus De Bop
TTITLE8=Don't Worry 'Bout Me
TTITLE9=Running Water
TTITLE10=And The Angels Swing
TTITLE11=Indian Summer
TTITLE12=Long Island Sound
TTITLE13=Crazy Chords
TTITLE14=Five Brothers
TTITLE15=T And S
TTITLE16=Cuddles
TTITLE17=Diaper Pin (Pinhead)
TTITLE18=Always
TTITLE19=Stan's Mood
TTITLE20=The Lady In Red
EXTD=YEAR: 2000
EXTT0=
EXTT1=
EXTT2=
EXTT3=
EXTT4=
EXTT5=
EXTT6=
EXTT7=
EXTT8=
EXTT9=
EXTT10=
EXTT11=
EXTT12=
EXTT13=
EXTT14=
EXTT15=
EXTT16=
EXTT17=
EXTT18=
EXTT19=
EXTT20=
PLAYORDER=
